<?xml version="1.0" encoding="UTF-8" standalone="no"?>
<!DOCTYPE svg PUBLIC "-//W3C//DTD SVG 1.1//EN"
 "http://www.w3.org/Graphics/SVG/1.1/DTD/svg11.dtd">
<!-- Generated by graphviz version 5.0.0 (20220707.1540)
 -->
<!-- Title: dependencies Pages: 1 -->
<svg width="1330pt" height="174pt"
 viewBox="0.00 0.00 1330.00 173.80" xmlns="http://www.w3.org/2000/svg" xmlns:xlink="http://www.w3.org/1999/xlink">
<g id="graph0" class="graph" transform="scale(1 1) rotate(0) translate(4 169.8)">
<title>dependencies</title>
<polygon fill="white" stroke="transparent" points="-4,4 -4,-169.8 1326,-169.8 1326,4 -4,4"/>
<text text-anchor="middle" x="661" y="-8.2" font-family="sans-serif" font-size="14.00">dependencies</text>
<g id="clust1" class="cluster">
<title>cluster_UsersModule</title>
<polygon fill="none" stroke="black" stroke-dasharray="1,5" points="8,-32.8 8,-157.8 1314,-157.8 1314,-32.8 8,-32.8"/>
</g>
<g id="clust2" class="cluster">
<title>cluster_UsersModule_declarations</title>
<polygon fill="none" stroke="black" points="176,-40.8 176,-92.8 1306,-92.8 1306,-40.8 176,-40.8"/>
</g>
<g id="clust11" class="cluster">
<title>cluster_UsersModule_imports</title>
<polygon fill="none" stroke="black" points="16,-40.8 16,-92.8 168,-92.8 168,-40.8 16,-40.8"/>
</g>
<!-- FormUserComponent -->
<g id="node1" class="node">
<title>FormUserComponent</title>
<polygon fill="#ffffb3" stroke="black" points="1298.1,-84.8 1159.9,-84.8 1159.9,-48.8 1298.1,-48.8 1298.1,-84.8"/>
<text text-anchor="middle" x="1229" y="-62.6" font-family="Times,serif" font-size="14.00">FormUserComponent</text>
</g>
<!-- UsersModule -->
<g id="node9" class="node">
<title>UsersModule</title>
<polygon fill="#8dd3c7" stroke="black" points="690.94,-149.8 687.94,-153.8 666.94,-153.8 663.94,-149.8 599.06,-149.8 599.06,-113.8 690.94,-113.8 690.94,-149.8"/>
<text text-anchor="middle" x="645" y="-127.6" font-family="Times,serif" font-size="14.00">UsersModule</text>
</g>
<!-- FormUserComponent&#45;&gt;UsersModule -->
<g id="edge1" class="edge">
<title>FormUserComponent&#45;&gt;UsersModule</title>
<path fill="none" stroke="black" d="M1229,-84.81C1229,-107.29 1229,-142.8 1229,-142.8 1229,-142.8 700.83,-142.8 700.83,-142.8"/>
<polygon fill="black" stroke="black" points="700.83,-139.3 690.83,-142.8 700.83,-146.3 700.83,-139.3"/>
</g>
<!-- ListUserComponent -->
<g id="node2" class="node">
<title>ListUserComponent</title>
<polygon fill="#ffffb3" stroke="black" points="1141.55,-84.8 1012.45,-84.8 1012.45,-48.8 1141.55,-48.8 1141.55,-84.8"/>
<text text-anchor="middle" x="1077" y="-62.6" font-family="Times,serif" font-size="14.00">ListUserComponent</text>
</g>
<!-- ListUserComponent&#45;&gt;UsersModule -->
<g id="edge2" class="edge">
<title>ListUserComponent&#45;&gt;UsersModule</title>
<path fill="none" stroke="black" d="M1077,-84.93C1077,-105.37 1077,-135.8 1077,-135.8 1077,-135.8 700.82,-135.8 700.82,-135.8"/>
<polygon fill="black" stroke="black" points="700.82,-132.3 690.82,-135.8 700.82,-139.3 700.82,-132.3"/>
</g>
<!-- LoginComponent -->
<g id="node3" class="node">
<title>LoginComponent</title>
<polygon fill="#ffffb3" stroke="black" points="994.27,-84.8 879.73,-84.8 879.73,-48.8 994.27,-48.8 994.27,-84.8"/>
<text text-anchor="middle" x="937" y="-62.6" font-family="Times,serif" font-size="14.00">LoginComponent</text>
</g>
<!-- LoginComponent&#45;&gt;UsersModule -->
<g id="edge3" class="edge">
<title>LoginComponent&#45;&gt;UsersModule</title>
<path fill="none" stroke="black" d="M937,-85.07C937,-103.36 937,-128.8 937,-128.8 937,-128.8 700.95,-128.8 700.95,-128.8"/>
<polygon fill="black" stroke="black" points="700.95,-125.3 690.95,-128.8 700.95,-132.3 700.95,-125.3"/>
</g>
<!-- LoginTestComponent -->
<g id="node4" class="node">
<title>LoginTestComponent</title>
<polygon fill="#ffffb3" stroke="black" points="861.38,-84.8 722.62,-84.8 722.62,-48.8 861.38,-48.8 861.38,-84.8"/>
<text text-anchor="middle" x="792" y="-62.6" font-family="Times,serif" font-size="14.00">LoginTestComponent</text>
</g>
<!-- LoginTestComponent&#45;&gt;UsersModule -->
<g id="edge4" class="edge">
<title>LoginTestComponent&#45;&gt;UsersModule</title>
<path fill="none" stroke="black" d="M792,-84.81C792,-100.85 792,-121.8 792,-121.8 792,-121.8 701.11,-121.8 701.11,-121.8"/>
<polygon fill="black" stroke="black" points="701.11,-118.3 691.11,-121.8 701.11,-125.3 701.11,-118.3"/>
</g>
<!-- ProfileComponent -->
<g id="node5" class="node">
<title>ProfileComponent</title>
<polygon fill="#ffffb3" stroke="black" points="704.94,-84.8 585.06,-84.8 585.06,-48.8 704.94,-48.8 704.94,-84.8"/>
<text text-anchor="middle" x="645" y="-62.6" font-family="Times,serif" font-size="14.00">ProfileComponent</text>
</g>
<!-- ProfileComponent&#45;&gt;UsersModule -->
<g id="edge5" class="edge">
<title>ProfileComponent&#45;&gt;UsersModule</title>
<path fill="none" stroke="black" d="M645,-84.91C645,-84.91 645,-103.79 645,-103.79"/>
<polygon fill="black" stroke="black" points="641.5,-103.79 645,-113.79 648.5,-103.79 641.5,-103.79"/>
</g>
<!-- RegisterComponent -->
<g id="node6" class="node">
<title>RegisterComponent</title>
<polygon fill="#ffffb3" stroke="black" points="566.99,-84.8 439.01,-84.8 439.01,-48.8 566.99,-48.8 566.99,-84.8"/>
<text text-anchor="middle" x="503" y="-62.6" font-family="Times,serif" font-size="14.00">RegisterComponent</text>
</g>
<!-- RegisterComponent&#45;&gt;UsersModule -->
<g id="edge6" class="edge">
<title>RegisterComponent&#45;&gt;UsersModule</title>
<path fill="none" stroke="black" d="M503,-84.81C503,-100.85 503,-121.8 503,-121.8 503,-121.8 588.9,-121.8 588.9,-121.8"/>
<polygon fill="black" stroke="black" points="588.9,-125.3 598.9,-121.8 588.9,-118.3 588.9,-125.3"/>
</g>
<!-- TestComponent -->
<g id="node7" class="node">
<title>TestComponent</title>
<polygon fill="#ffffb3" stroke="black" points="420.94,-84.8 315.06,-84.8 315.06,-48.8 420.94,-48.8 420.94,-84.8"/>
<text text-anchor="middle" x="368" y="-62.6" font-family="Times,serif" font-size="14.00">TestComponent</text>
</g>
<!-- TestComponent&#45;&gt;UsersModule -->
<g id="edge7" class="edge">
<title>TestComponent&#45;&gt;UsersModule</title>
<path fill="none" stroke="black" d="M368,-85.07C368,-103.36 368,-128.8 368,-128.8 368,-128.8 589.26,-128.8 589.26,-128.8"/>
<polygon fill="black" stroke="black" points="589.26,-132.3 599.26,-128.8 589.26,-125.3 589.26,-132.3"/>
</g>
<!-- UsersComponent -->
<g id="node8" class="node">
<title>UsersComponent</title>
<polygon fill="#ffffb3" stroke="black" points="297.71,-84.8 184.29,-84.8 184.29,-48.8 297.71,-48.8 297.71,-84.8"/>
<text text-anchor="middle" x="241" y="-62.6" font-family="Times,serif" font-size="14.00">UsersComponent</text>
</g>
<!-- UsersComponent&#45;&gt;UsersModule -->
<g id="edge8" class="edge">
<title>UsersComponent&#45;&gt;UsersModule</title>
<path fill="none" stroke="black" d="M241,-84.93C241,-105.37 241,-135.8 241,-135.8 241,-135.8 589.05,-135.8 589.05,-135.8"/>
<polygon fill="black" stroke="black" points="589.05,-139.3 599.05,-135.8 589.05,-132.3 589.05,-139.3"/>
</g>
<!-- UsersRoutingModule -->
<g id="node10" class="node">
<title>UsersRoutingModule</title>
<polygon fill="#8dd3c7" stroke="black" points="160.05,-84.8 157.05,-88.8 136.05,-88.8 133.05,-84.8 23.95,-84.8 23.95,-48.8 160.05,-48.8 160.05,-84.8"/>
<text text-anchor="middle" x="92" y="-62.6" font-family="Times,serif" font-size="14.00">UsersRoutingModule</text>
</g>
<!-- UsersRoutingModule&#45;&gt;UsersModule -->
<g id="edge9" class="edge">
<title>UsersRoutingModule&#45;&gt;UsersModule</title>
<path fill="none" stroke="black" d="M92,-84.81C92,-107.29 92,-142.8 92,-142.8 92,-142.8 589.28,-142.8 589.28,-142.8"/>
<polygon fill="black" stroke="black" points="589.28,-146.3 599.28,-142.8 589.28,-139.3 589.28,-146.3"/>
</g>
</g>
</svg>
