<?xml version="1.0" encoding="UTF-8" standalone="no"?>
<!DOCTYPE svg PUBLIC "-//W3C//DTD SVG 1.1//EN"
 "http://www.w3.org/Graphics/SVG/1.1/DTD/svg11.dtd">
<!-- Generated by graphviz version 5.0.0 (20220707.1540)
 -->
<!-- Title: dependencies Pages: 1 -->
<svg width="1060pt" height="174pt"
 viewBox="0.00 0.00 1060.00 173.80" xmlns="http://www.w3.org/2000/svg" xmlns:xlink="http://www.w3.org/1999/xlink">
<g id="graph0" class="graph" transform="scale(1 1) rotate(0) translate(4 169.8)">
<title>dependencies</title>
<polygon fill="white" stroke="transparent" points="-4,4 -4,-169.8 1056,-169.8 1056,4 -4,4"/>
<text text-anchor="middle" x="526" y="-8.2" font-family="sans-serif" font-size="14.00">dependencies</text>
<g id="clust1" class="cluster">
<title>cluster_ProductsModule</title>
<polygon fill="none" stroke="black" stroke-dasharray="1,5" points="8,-32.8 8,-157.8 1044,-157.8 1044,-32.8 8,-32.8"/>
</g>
<g id="clust8" class="cluster">
<title>cluster_ProductsModule_imports</title>
<polygon fill="none" stroke="black" points="866,-40.8 866,-92.8 1036,-92.8 1036,-40.8 866,-40.8"/>
</g>
<g id="clust2" class="cluster">
<title>cluster_ProductsModule_declarations</title>
<polygon fill="none" stroke="black" points="16,-40.8 16,-92.8 858,-92.8 858,-40.8 16,-40.8"/>
</g>
<!-- AdminProductComponent -->
<g id="node1" class="node">
<title>AdminProductComponent</title>
<polygon fill="#ffffb3" stroke="black" points="849.77,-84.8 686.23,-84.8 686.23,-48.8 849.77,-48.8 849.77,-84.8"/>
<text text-anchor="middle" x="768" y="-62.6" font-family="Times,serif" font-size="14.00">AdminProductComponent</text>
</g>
<!-- ProductsModule -->
<g id="node6" class="node">
<title>ProductsModule</title>
<polygon fill="#8dd3c7" stroke="black" points="555.05,-149.8 552.05,-153.8 531.05,-153.8 528.05,-149.8 446.95,-149.8 446.95,-113.8 555.05,-113.8 555.05,-149.8"/>
<text text-anchor="middle" x="501" y="-127.6" font-family="Times,serif" font-size="14.00">ProductsModule</text>
</g>
<!-- AdminProductComponent&#45;&gt;ProductsModule -->
<g id="edge1" class="edge">
<title>AdminProductComponent&#45;&gt;ProductsModule</title>
<path fill="none" stroke="black" d="M768,-84.82C768,-102.17 768,-125.8 768,-125.8 768,-125.8 565.35,-125.8 565.35,-125.8"/>
<polygon fill="black" stroke="black" points="565.35,-122.3 555.35,-125.8 565.35,-129.3 565.35,-122.3"/>
</g>
<!-- DetailProductComponent -->
<g id="node2" class="node">
<title>DetailProductComponent</title>
<polygon fill="#ffffb3" stroke="black" points="668.59,-84.8 509.41,-84.8 509.41,-48.8 668.59,-48.8 668.59,-84.8"/>
<text text-anchor="middle" x="589" y="-62.6" font-family="Times,serif" font-size="14.00">DetailProductComponent</text>
</g>
<!-- DetailProductComponent&#45;&gt;ProductsModule -->
<g id="edge2" class="edge">
<title>DetailProductComponent&#45;&gt;ProductsModule</title>
<path fill="none" stroke="black" d="M532.37,-84.91C532.37,-84.91 532.37,-103.79 532.37,-103.79"/>
<polygon fill="black" stroke="black" points="528.87,-103.79 532.37,-113.79 535.87,-103.79 528.87,-103.79"/>
</g>
<!-- FormProductComponent -->
<g id="node3" class="node">
<title>FormProductComponent</title>
<polygon fill="#ffffb3" stroke="black" points="491.72,-84.8 336.28,-84.8 336.28,-48.8 491.72,-48.8 491.72,-84.8"/>
<text text-anchor="middle" x="414" y="-62.6" font-family="Times,serif" font-size="14.00">FormProductComponent</text>
</g>
<!-- FormProductComponent&#45;&gt;ProductsModule -->
<g id="edge3" class="edge">
<title>FormProductComponent&#45;&gt;ProductsModule</title>
<path fill="none" stroke="black" d="M469.17,-84.91C469.17,-84.91 469.17,-103.79 469.17,-103.79"/>
<polygon fill="black" stroke="black" points="465.67,-103.79 469.17,-113.79 472.67,-103.79 465.67,-103.79"/>
</g>
<!-- ListProductComponent -->
<g id="node4" class="node">
<title>ListProductComponent</title>
<polygon fill="#ffffb3" stroke="black" points="318.16,-84.8 171.84,-84.8 171.84,-48.8 318.16,-48.8 318.16,-84.8"/>
<text text-anchor="middle" x="245" y="-62.6" font-family="Times,serif" font-size="14.00">ListProductComponent</text>
</g>
<!-- ListProductComponent&#45;&gt;ProductsModule -->
<g id="edge4" class="edge">
<title>ListProductComponent&#45;&gt;ProductsModule</title>
<path fill="none" stroke="black" d="M245,-84.82C245,-102.17 245,-125.8 245,-125.8 245,-125.8 436.71,-125.8 436.71,-125.8"/>
<polygon fill="black" stroke="black" points="436.71,-129.3 446.71,-125.8 436.71,-122.3 436.71,-129.3"/>
</g>
<!-- ProductsComponent -->
<g id="node5" class="node">
<title>ProductsComponent</title>
<polygon fill="#ffffb3" stroke="black" points="154.33,-84.8 23.67,-84.8 23.67,-48.8 154.33,-48.8 154.33,-84.8"/>
<text text-anchor="middle" x="89" y="-62.6" font-family="Times,serif" font-size="14.00">ProductsComponent</text>
</g>
<!-- ProductsComponent&#45;&gt;ProductsModule -->
<g id="edge5" class="edge">
<title>ProductsComponent&#45;&gt;ProductsModule</title>
<path fill="none" stroke="black" d="M89,-85.08C89,-106.12 89,-137.8 89,-137.8 89,-137.8 436.71,-137.8 436.71,-137.8"/>
<polygon fill="black" stroke="black" points="436.71,-141.3 446.71,-137.8 436.71,-134.3 436.71,-141.3"/>
</g>
<!-- ProductsRoutingModule -->
<g id="node7" class="node">
<title>ProductsRoutingModule</title>
<polygon fill="#8dd3c7" stroke="black" points="1027.67,-84.8 1024.67,-88.8 1003.67,-88.8 1000.67,-84.8 874.33,-84.8 874.33,-48.8 1027.67,-48.8 1027.67,-84.8"/>
<text text-anchor="middle" x="951" y="-62.6" font-family="Times,serif" font-size="14.00">ProductsRoutingModule</text>
</g>
<!-- ProductsRoutingModule&#45;&gt;ProductsModule -->
<g id="edge6" class="edge">
<title>ProductsRoutingModule&#45;&gt;ProductsModule</title>
<path fill="none" stroke="black" d="M951,-85.08C951,-106.12 951,-137.8 951,-137.8 951,-137.8 565.28,-137.8 565.28,-137.8"/>
<polygon fill="black" stroke="black" points="565.28,-134.3 555.28,-137.8 565.28,-141.3 565.28,-134.3"/>
</g>
</g>
</svg>
