<?xml version="1.0" encoding="UTF-8" standalone="no"?>
<!DOCTYPE svg PUBLIC "-//W3C//DTD SVG 1.1//EN"
 "http://www.w3.org/Graphics/SVG/1.1/DTD/svg11.dtd">
<!-- Generated by graphviz version 5.0.0 (20220707.1540)
 -->
<!-- Title: dependencies Pages: 1 -->
<svg width="3380pt" height="247pt"
 viewBox="0.00 0.00 3380.00 246.80" xmlns="http://www.w3.org/2000/svg" xmlns:xlink="http://www.w3.org/1999/xlink">
<g id="graph0" class="graph" transform="scale(1 1) rotate(0) translate(4 242.8)">
<title>dependencies</title>
<polygon fill="white" stroke="transparent" points="-4,4 -4,-242.8 3376,-242.8 3376,4 -4,4"/>
<text text-anchor="middle" x="1686" y="-8.2" font-family="sans-serif" font-size="14.00">dependencies</text>
<g id="clust1" class="cluster">
<title>cluster_AppModule</title>
<polygon fill="none" stroke="black" stroke-dasharray="1,5" points="8,-32.8 8,-230.8 1006,-230.8 1006,-32.8 8,-32.8"/>
</g>
<g id="clust2" class="cluster">
<title>cluster_AppModule_declarations</title>
<polygon fill="none" stroke="black" points="168,-40.8 168,-92.8 998,-92.8 998,-40.8 168,-40.8"/>
</g>
<g id="clust9" class="cluster">
<title>cluster_AppModule_imports</title>
<polygon fill="none" stroke="black" points="16,-40.8 16,-92.8 160,-92.8 160,-40.8 16,-40.8"/>
</g>
<g id="clust11" class="cluster">
<title>cluster_AppModule_bootstrap</title>
<polygon fill="none" stroke="black" points="465,-170.8 465,-222.8 589,-222.8 589,-170.8 465,-170.8"/>
</g>
<g id="clust19" class="cluster">
<title>cluster_ProductsModule</title>
<polygon fill="none" stroke="black" stroke-dasharray="1,5" points="1014,-32.8 1014,-157.8 2050,-157.8 2050,-32.8 1014,-32.8"/>
</g>
<g id="clust20" class="cluster">
<title>cluster_ProductsModule_declarations</title>
<polygon fill="none" stroke="black" points="1200,-40.8 1200,-92.8 2042,-92.8 2042,-40.8 1200,-40.8"/>
</g>
<g id="clust26" class="cluster">
<title>cluster_ProductsModule_imports</title>
<polygon fill="none" stroke="black" points="1022,-40.8 1022,-92.8 1192,-92.8 1192,-40.8 1022,-40.8"/>
</g>
<g id="clust36" class="cluster">
<title>cluster_UsersModule</title>
<polygon fill="none" stroke="black" stroke-dasharray="1,5" points="2058,-32.8 2058,-157.8 3364,-157.8 3364,-32.8 2058,-32.8"/>
</g>
<g id="clust37" class="cluster">
<title>cluster_UsersModule_declarations</title>
<polygon fill="none" stroke="black" points="2226,-40.8 2226,-92.8 3356,-92.8 3356,-40.8 2226,-40.8"/>
</g>
<g id="clust46" class="cluster">
<title>cluster_UsersModule_imports</title>
<polygon fill="none" stroke="black" points="2066,-40.8 2066,-92.8 2218,-92.8 2218,-40.8 2066,-40.8"/>
</g>
<!-- AppComponent -->
<g id="node1" class="node">
<title>AppComponent</title>
<polygon fill="#ffffb3" stroke="black" points="989.94,-84.8 884.06,-84.8 884.06,-48.8 989.94,-48.8 989.94,-84.8"/>
<text text-anchor="middle" x="937" y="-62.6" font-family="Times,serif" font-size="14.00">AppComponent</text>
</g>
<!-- AppModule -->
<g id="node7" class="node">
<title>AppModule</title>
<polygon fill="#8dd3c7" stroke="black" points="568.66,-149.8 565.66,-153.8 544.66,-153.8 541.66,-149.8 485.34,-149.8 485.34,-113.8 568.66,-113.8 568.66,-149.8"/>
<text text-anchor="middle" x="527" y="-127.6" font-family="Times,serif" font-size="14.00">AppModule</text>
</g>
<!-- AppComponent&#45;&gt;AppModule -->
<g id="edge1" class="edge">
<title>AppComponent&#45;&gt;AppModule</title>
<path fill="none" stroke="black" d="M937,-85.05C937,-107.82 937,-143.8 937,-143.8 937,-143.8 578.95,-143.8 578.95,-143.8"/>
<polygon fill="black" stroke="black" points="578.95,-140.3 568.95,-143.8 578.95,-147.3 578.95,-140.3"/>
</g>
<!-- ContactComponent -->
<g id="node2" class="node">
<title>ContactComponent</title>
<polygon fill="#ffffb3" stroke="black" points="866.38,-84.8 741.62,-84.8 741.62,-48.8 866.38,-48.8 866.38,-84.8"/>
<text text-anchor="middle" x="804" y="-62.6" font-family="Times,serif" font-size="14.00">ContactComponent</text>
</g>
<!-- ContactComponent&#45;&gt;AppModule -->
<g id="edge2" class="edge">
<title>ContactComponent&#45;&gt;AppModule</title>
<path fill="none" stroke="black" d="M804,-85.08C804,-106.12 804,-137.8 804,-137.8 804,-137.8 578.77,-137.8 578.77,-137.8"/>
<polygon fill="black" stroke="black" points="578.77,-134.3 568.77,-137.8 578.77,-141.3 578.77,-134.3"/>
</g>
<!-- FooterComponent -->
<g id="node3" class="node">
<title>FooterComponent</title>
<polygon fill="#ffffb3" stroke="black" points="723.88,-84.8 606.12,-84.8 606.12,-48.8 723.88,-48.8 723.88,-84.8"/>
<text text-anchor="middle" x="665" y="-62.6" font-family="Times,serif" font-size="14.00">FooterComponent</text>
</g>
<!-- FooterComponent&#45;&gt;AppModule -->
<g id="edge3" class="edge">
<title>FooterComponent&#45;&gt;AppModule</title>
<path fill="none" stroke="black" d="M665,-84.91C665,-104.14 665,-131.8 665,-131.8 665,-131.8 578.78,-131.8 578.78,-131.8"/>
<polygon fill="black" stroke="black" points="578.78,-128.3 568.78,-131.8 578.78,-135.3 578.78,-128.3"/>
</g>
<!-- HeaderComponent -->
<g id="node4" class="node">
<title>HeaderComponent</title>
<polygon fill="#ffffb3" stroke="black" points="587.75,-84.8 466.25,-84.8 466.25,-48.8 587.75,-48.8 587.75,-84.8"/>
<text text-anchor="middle" x="527" y="-62.6" font-family="Times,serif" font-size="14.00">HeaderComponent</text>
</g>
<!-- HeaderComponent&#45;&gt;AppModule -->
<g id="edge4" class="edge">
<title>HeaderComponent&#45;&gt;AppModule</title>
<path fill="none" stroke="black" d="M527,-84.91C527,-84.91 527,-103.79 527,-103.79"/>
<polygon fill="black" stroke="black" points="523.5,-103.79 527,-113.79 530.5,-103.79 523.5,-103.79"/>
</g>
<!-- HomeComponent -->
<g id="node5" class="node">
<title>HomeComponent</title>
<polygon fill="#ffffb3" stroke="black" points="447.55,-84.8 332.45,-84.8 332.45,-48.8 447.55,-48.8 447.55,-84.8"/>
<text text-anchor="middle" x="390" y="-62.6" font-family="Times,serif" font-size="14.00">HomeComponent</text>
</g>
<!-- HomeComponent&#45;&gt;AppModule -->
<g id="edge5" class="edge">
<title>HomeComponent&#45;&gt;AppModule</title>
<path fill="none" stroke="black" d="M390,-84.83C390,-101.2 390,-122.8 390,-122.8 390,-122.8 475.15,-122.8 475.15,-122.8"/>
<polygon fill="black" stroke="black" points="475.15,-126.3 485.15,-122.8 475.15,-119.3 475.15,-126.3"/>
</g>
<!-- NotFoundComponent -->
<g id="node6" class="node">
<title>NotFoundComponent</title>
<polygon fill="#ffffb3" stroke="black" points="314.12,-84.8 175.88,-84.8 175.88,-48.8 314.12,-48.8 314.12,-84.8"/>
<text text-anchor="middle" x="245" y="-62.6" font-family="Times,serif" font-size="14.00">NotFoundComponent</text>
</g>
<!-- NotFoundComponent&#45;&gt;AppModule -->
<g id="edge6" class="edge">
<title>NotFoundComponent&#45;&gt;AppModule</title>
<path fill="none" stroke="black" d="M245,-84.91C245,-104.14 245,-131.8 245,-131.8 245,-131.8 475.09,-131.8 475.09,-131.8"/>
<polygon fill="black" stroke="black" points="475.09,-135.3 485.09,-131.8 475.09,-128.3 475.09,-135.3"/>
</g>
<!-- AppComponent  -->
<g id="node9" class="node">
<title>AppComponent </title>
<polygon fill="#80b1d3" stroke="black" points="581.44,-214.8 472.56,-214.8 472.56,-178.8 581.44,-178.8 581.44,-214.8"/>
<text text-anchor="middle" x="527" y="-192.6" font-family="Times,serif" font-size="14.00">AppComponent </text>
</g>
<!-- AppModule&#45;&gt;AppComponent  -->
<g id="edge8" class="edge">
<title>AppModule&#45;&gt;AppComponent </title>
<path fill="none" stroke="black" stroke-dasharray="1,5" d="M527,-149.91C527,-149.91 527,-168.79 527,-168.79"/>
<polygon fill="black" stroke="black" points="523.5,-168.79 527,-178.79 530.5,-168.79 523.5,-168.79"/>
</g>
<!-- AppRoutingModule -->
<g id="node8" class="node">
<title>AppRoutingModule</title>
<polygon fill="#8dd3c7" stroke="black" points="152.28,-84.8 149.28,-88.8 128.28,-88.8 125.28,-84.8 23.72,-84.8 23.72,-48.8 152.28,-48.8 152.28,-84.8"/>
<text text-anchor="middle" x="88" y="-62.6" font-family="Times,serif" font-size="14.00">AppRoutingModule</text>
</g>
<!-- AppRoutingModule&#45;&gt;AppModule -->
<g id="edge7" class="edge">
<title>AppRoutingModule&#45;&gt;AppModule</title>
<path fill="none" stroke="black" d="M88,-85.09C88,-107.01 88,-140.8 88,-140.8 88,-140.8 475.3,-140.8 475.3,-140.8"/>
<polygon fill="black" stroke="black" points="475.3,-144.3 485.3,-140.8 475.3,-137.3 475.3,-144.3"/>
</g>
<!-- AdminProductComponent -->
<g id="node10" class="node">
<title>AdminProductComponent</title>
<polygon fill="#ffffb3" stroke="black" points="2033.77,-84.8 1870.23,-84.8 1870.23,-48.8 2033.77,-48.8 2033.77,-84.8"/>
<text text-anchor="middle" x="1952" y="-62.6" font-family="Times,serif" font-size="14.00">AdminProductComponent</text>
</g>
<!-- ProductsModule -->
<g id="node15" class="node">
<title>ProductsModule</title>
<polygon fill="#8dd3c7" stroke="black" points="1567.05,-149.8 1564.05,-153.8 1543.05,-153.8 1540.05,-149.8 1458.95,-149.8 1458.95,-113.8 1567.05,-113.8 1567.05,-149.8"/>
<text text-anchor="middle" x="1513" y="-127.6" font-family="Times,serif" font-size="14.00">ProductsModule</text>
</g>
<!-- AdminProductComponent&#45;&gt;ProductsModule -->
<g id="edge9" class="edge">
<title>AdminProductComponent&#45;&gt;ProductsModule</title>
<path fill="none" stroke="black" d="M1952,-84.83C1952,-101.86 1952,-124.8 1952,-124.8 1952,-124.8 1577.27,-124.8 1577.27,-124.8"/>
<polygon fill="black" stroke="black" points="1577.27,-121.3 1567.27,-124.8 1577.27,-128.3 1577.27,-121.3"/>
</g>
<!-- DetailProductComponent -->
<g id="node11" class="node">
<title>DetailProductComponent</title>
<polygon fill="#ffffb3" stroke="black" points="1852.59,-84.8 1693.41,-84.8 1693.41,-48.8 1852.59,-48.8 1852.59,-84.8"/>
<text text-anchor="middle" x="1773" y="-62.6" font-family="Times,serif" font-size="14.00">DetailProductComponent</text>
</g>
<!-- DetailProductComponent&#45;&gt;ProductsModule -->
<g id="edge10" class="edge">
<title>DetailProductComponent&#45;&gt;ProductsModule</title>
<path fill="none" stroke="black" d="M1773,-85.04C1773,-100.37 1773,-119.8 1773,-119.8 1773,-119.8 1577.19,-119.8 1577.19,-119.8"/>
<polygon fill="black" stroke="black" points="1577.19,-116.3 1567.19,-119.8 1577.19,-123.3 1577.19,-116.3"/>
</g>
<!-- FormProductComponent -->
<g id="node12" class="node">
<title>FormProductComponent</title>
<polygon fill="#ffffb3" stroke="black" points="1675.72,-84.8 1520.28,-84.8 1520.28,-48.8 1675.72,-48.8 1675.72,-84.8"/>
<text text-anchor="middle" x="1598" y="-62.6" font-family="Times,serif" font-size="14.00">FormProductComponent</text>
</g>
<!-- FormProductComponent&#45;&gt;ProductsModule -->
<g id="edge11" class="edge">
<title>FormProductComponent&#45;&gt;ProductsModule</title>
<path fill="none" stroke="black" d="M1543.83,-84.91C1543.83,-84.91 1543.83,-103.79 1543.83,-103.79"/>
<polygon fill="black" stroke="black" points="1540.33,-103.79 1543.83,-113.79 1547.33,-103.79 1540.33,-103.79"/>
</g>
<!-- ListProductComponent -->
<g id="node13" class="node">
<title>ListProductComponent</title>
<polygon fill="#ffffb3" stroke="black" points="1502.16,-84.8 1355.84,-84.8 1355.84,-48.8 1502.16,-48.8 1502.16,-84.8"/>
<text text-anchor="middle" x="1429" y="-62.6" font-family="Times,serif" font-size="14.00">ListProductComponent</text>
</g>
<!-- ListProductComponent&#45;&gt;ProductsModule -->
<g id="edge12" class="edge">
<title>ListProductComponent&#45;&gt;ProductsModule</title>
<path fill="none" stroke="black" d="M1480.53,-84.91C1480.53,-84.91 1480.53,-103.79 1480.53,-103.79"/>
<polygon fill="black" stroke="black" points="1477.03,-103.79 1480.53,-113.79 1484.03,-103.79 1477.03,-103.79"/>
</g>
<!-- ProductsComponent -->
<g id="node14" class="node">
<title>ProductsComponent</title>
<polygon fill="#ffffb3" stroke="black" points="1338.33,-84.8 1207.67,-84.8 1207.67,-48.8 1338.33,-48.8 1338.33,-84.8"/>
<text text-anchor="middle" x="1273" y="-62.6" font-family="Times,serif" font-size="14.00">ProductsComponent</text>
</g>
<!-- ProductsComponent&#45;&gt;ProductsModule -->
<g id="edge13" class="edge">
<title>ProductsComponent&#45;&gt;ProductsModule</title>
<path fill="none" stroke="black" d="M1273,-85.04C1273,-100.37 1273,-119.8 1273,-119.8 1273,-119.8 1448.84,-119.8 1448.84,-119.8"/>
<polygon fill="black" stroke="black" points="1448.84,-123.3 1458.84,-119.8 1448.84,-116.3 1448.84,-123.3"/>
</g>
<!-- ProductsRoutingModule -->
<g id="node16" class="node">
<title>ProductsRoutingModule</title>
<polygon fill="#8dd3c7" stroke="black" points="1183.67,-84.8 1180.67,-88.8 1159.67,-88.8 1156.67,-84.8 1030.33,-84.8 1030.33,-48.8 1183.67,-48.8 1183.67,-84.8"/>
<text text-anchor="middle" x="1107" y="-62.6" font-family="Times,serif" font-size="14.00">ProductsRoutingModule</text>
</g>
<!-- ProductsRoutingModule&#45;&gt;ProductsModule -->
<g id="edge14" class="edge">
<title>ProductsRoutingModule&#45;&gt;ProductsModule</title>
<path fill="none" stroke="black" d="M1107,-84.82C1107,-102.17 1107,-125.8 1107,-125.8 1107,-125.8 1448.67,-125.8 1448.67,-125.8"/>
<polygon fill="black" stroke="black" points="1448.67,-129.3 1458.67,-125.8 1448.67,-122.3 1448.67,-129.3"/>
</g>
<!-- FormUserComponent -->
<g id="node17" class="node">
<title>FormUserComponent</title>
<polygon fill="#ffffb3" stroke="black" points="3348.1,-84.8 3209.9,-84.8 3209.9,-48.8 3348.1,-48.8 3348.1,-84.8"/>
<text text-anchor="middle" x="3279" y="-62.6" font-family="Times,serif" font-size="14.00">FormUserComponent</text>
</g>
<!-- UsersModule -->
<g id="node25" class="node">
<title>UsersModule</title>
<polygon fill="#8dd3c7" stroke="black" points="2740.94,-149.8 2737.94,-153.8 2716.94,-153.8 2713.94,-149.8 2649.06,-149.8 2649.06,-113.8 2740.94,-113.8 2740.94,-149.8"/>
<text text-anchor="middle" x="2695" y="-127.6" font-family="Times,serif" font-size="14.00">UsersModule</text>
</g>
<!-- FormUserComponent&#45;&gt;UsersModule -->
<g id="edge15" class="edge">
<title>FormUserComponent&#45;&gt;UsersModule</title>
<path fill="none" stroke="black" d="M3279,-84.81C3279,-107.29 3279,-142.8 3279,-142.8 3279,-142.8 2750.83,-142.8 2750.83,-142.8"/>
<polygon fill="black" stroke="black" points="2750.83,-139.3 2740.83,-142.8 2750.83,-146.3 2750.83,-139.3"/>
</g>
<!-- ListUserComponent -->
<g id="node18" class="node">
<title>ListUserComponent</title>
<polygon fill="#ffffb3" stroke="black" points="3191.55,-84.8 3062.45,-84.8 3062.45,-48.8 3191.55,-48.8 3191.55,-84.8"/>
<text text-anchor="middle" x="3127" y="-62.6" font-family="Times,serif" font-size="14.00">ListUserComponent</text>
</g>
<!-- ListUserComponent&#45;&gt;UsersModule -->
<g id="edge16" class="edge">
<title>ListUserComponent&#45;&gt;UsersModule</title>
<path fill="none" stroke="black" d="M3127,-84.93C3127,-105.37 3127,-135.8 3127,-135.8 3127,-135.8 2750.82,-135.8 2750.82,-135.8"/>
<polygon fill="black" stroke="black" points="2750.82,-132.3 2740.82,-135.8 2750.82,-139.3 2750.82,-132.3"/>
</g>
<!-- LoginComponent -->
<g id="node19" class="node">
<title>LoginComponent</title>
<polygon fill="#ffffb3" stroke="black" points="3044.27,-84.8 2929.73,-84.8 2929.73,-48.8 3044.27,-48.8 3044.27,-84.8"/>
<text text-anchor="middle" x="2987" y="-62.6" font-family="Times,serif" font-size="14.00">LoginComponent</text>
</g>
<!-- LoginComponent&#45;&gt;UsersModule -->
<g id="edge17" class="edge">
<title>LoginComponent&#45;&gt;UsersModule</title>
<path fill="none" stroke="black" d="M2987,-85.07C2987,-103.36 2987,-128.8 2987,-128.8 2987,-128.8 2750.95,-128.8 2750.95,-128.8"/>
<polygon fill="black" stroke="black" points="2750.95,-125.3 2740.95,-128.8 2750.95,-132.3 2750.95,-125.3"/>
</g>
<!-- LoginTestComponent -->
<g id="node20" class="node">
<title>LoginTestComponent</title>
<polygon fill="#ffffb3" stroke="black" points="2911.38,-84.8 2772.62,-84.8 2772.62,-48.8 2911.38,-48.8 2911.38,-84.8"/>
<text text-anchor="middle" x="2842" y="-62.6" font-family="Times,serif" font-size="14.00">LoginTestComponent</text>
</g>
<!-- LoginTestComponent&#45;&gt;UsersModule -->
<g id="edge18" class="edge">
<title>LoginTestComponent&#45;&gt;UsersModule</title>
<path fill="none" stroke="black" d="M2842,-84.81C2842,-100.85 2842,-121.8 2842,-121.8 2842,-121.8 2751.11,-121.8 2751.11,-121.8"/>
<polygon fill="black" stroke="black" points="2751.11,-118.3 2741.11,-121.8 2751.11,-125.3 2751.11,-118.3"/>
</g>
<!-- ProfileComponent -->
<g id="node21" class="node">
<title>ProfileComponent</title>
<polygon fill="#ffffb3" stroke="black" points="2754.94,-84.8 2635.06,-84.8 2635.06,-48.8 2754.94,-48.8 2754.94,-84.8"/>
<text text-anchor="middle" x="2695" y="-62.6" font-family="Times,serif" font-size="14.00">ProfileComponent</text>
</g>
<!-- ProfileComponent&#45;&gt;UsersModule -->
<g id="edge19" class="edge">
<title>ProfileComponent&#45;&gt;UsersModule</title>
<path fill="none" stroke="black" d="M2695,-84.91C2695,-84.91 2695,-103.79 2695,-103.79"/>
<polygon fill="black" stroke="black" points="2691.5,-103.79 2695,-113.79 2698.5,-103.79 2691.5,-103.79"/>
</g>
<!-- RegisterComponent -->
<g id="node22" class="node">
<title>RegisterComponent</title>
<polygon fill="#ffffb3" stroke="black" points="2616.99,-84.8 2489.01,-84.8 2489.01,-48.8 2616.99,-48.8 2616.99,-84.8"/>
<text text-anchor="middle" x="2553" y="-62.6" font-family="Times,serif" font-size="14.00">RegisterComponent</text>
</g>
<!-- RegisterComponent&#45;&gt;UsersModule -->
<g id="edge20" class="edge">
<title>RegisterComponent&#45;&gt;UsersModule</title>
<path fill="none" stroke="black" d="M2553,-85.02C2553,-103.63 2553,-129.8 2553,-129.8 2553,-129.8 2638.9,-129.8 2638.9,-129.8"/>
<polygon fill="black" stroke="black" points="2638.9,-133.3 2648.9,-129.8 2638.9,-126.3 2638.9,-133.3"/>
</g>
<!-- TestComponent -->
<g id="node23" class="node">
<title>TestComponent</title>
<polygon fill="#ffffb3" stroke="black" points="2470.94,-84.8 2365.06,-84.8 2365.06,-48.8 2470.94,-48.8 2470.94,-84.8"/>
<text text-anchor="middle" x="2418" y="-62.6" font-family="Times,serif" font-size="14.00">TestComponent</text>
</g>
<!-- TestComponent&#45;&gt;UsersModule -->
<g id="edge21" class="edge">
<title>TestComponent&#45;&gt;UsersModule</title>
<path fill="none" stroke="black" d="M2418,-85.02C2418,-105.17 2418,-134.8 2418,-134.8 2418,-134.8 2639.26,-134.8 2639.26,-134.8"/>
<polygon fill="black" stroke="black" points="2639.26,-138.3 2649.26,-134.8 2639.26,-131.3 2639.26,-138.3"/>
</g>
<!-- UsersComponent -->
<g id="node24" class="node">
<title>UsersComponent</title>
<polygon fill="#ffffb3" stroke="black" points="2347.71,-84.8 2234.29,-84.8 2234.29,-48.8 2347.71,-48.8 2347.71,-84.8"/>
<text text-anchor="middle" x="2291" y="-62.6" font-family="Times,serif" font-size="14.00">UsersComponent</text>
</g>
<!-- UsersComponent&#45;&gt;UsersModule -->
<g id="edge22" class="edge">
<title>UsersComponent&#45;&gt;UsersModule</title>
<path fill="none" stroke="black" d="M2291,-84.84C2291,-106.46 2291,-139.8 2291,-139.8 2291,-139.8 2639.05,-139.8 2639.05,-139.8"/>
<polygon fill="black" stroke="black" points="2639.05,-143.3 2649.05,-139.8 2639.05,-136.3 2639.05,-143.3"/>
</g>
<!-- UsersRoutingModule -->
<g id="node26" class="node">
<title>UsersRoutingModule</title>
<polygon fill="#8dd3c7" stroke="black" points="2210.05,-84.8 2207.05,-88.8 2186.05,-88.8 2183.05,-84.8 2073.95,-84.8 2073.95,-48.8 2210.05,-48.8 2210.05,-84.8"/>
<text text-anchor="middle" x="2142" y="-62.6" font-family="Times,serif" font-size="14.00">UsersRoutingModule</text>
</g>
<!-- UsersRoutingModule&#45;&gt;UsersModule -->
<g id="edge23" class="edge">
<title>UsersRoutingModule&#45;&gt;UsersModule</title>
<path fill="none" stroke="black" d="M2142,-84.89C2142,-107.93 2142,-144.8 2142,-144.8 2142,-144.8 2639.28,-144.8 2639.28,-144.8"/>
<polygon fill="black" stroke="black" points="2639.28,-148.3 2649.28,-144.8 2639.28,-141.3 2639.28,-148.3"/>
</g>
</g>
</svg>
